<svg xmlns="http://www.w3.org/2000/svg" viewBox="0 0 4612.7 1504.9"><path fill="#1A1614" d="M25.17880128324032 1484.3984375Q14.579338386654854 1484.3984375 8.069648440927267 1478.7287280224264Q1.5599584951996803 1473.0590185448527 1.5599584951996803 1463.1795702949166Q1.5599584951996803 1455.059958472848 6.4098669439554214 1449.2001830786467Q11.259775392711163 1443.3404076844454 21.619587406516075 1439.3406396135688L67.58091308921576 1430.7406640276313Q82.40095214545727 1426.700769007206 88.49098144099116 1416.46096554026Q94.58101073652506 1406.2211620733142 94.58101073652506 1385.9618261307478V157.33500004559755Q94.58101073652506 143.3555273860693 90.11110595241189 136.95572269707918Q85.64120116829872 130.55591800808907 74.8813769519329 128.5760791376233L17.559396974742413 127.49616702646017Q8.099755860865116 124.6164013966918 4.049877930432558 119.54661257565022Q0.0 114.47682375460863 0.0 107.05718751996756Q0.0 98.35756593197584 5.459769289940596 92.73785645514727Q10.919538579881191 87.11814697831869 23.098974622786045 82.69838867336512L267.3361352235079 10.339492194354534Q285.4754321053624 4.019770510494709 294.4050329402089 2.0098852552473545Q303.3346337750554 0.0 311.59425047785044 0.0Q323.83374267071486 0.0 330.1334924288094 7.659702152013779Q336.43324218690395 15.319404304027557 336.43324218690395 27.378911145031452V1385.4017821848392Q336.43324218690395 1406.7611181288958 342.46328857168555 1417.450884975493Q348.49333495646715 1428.1406518220901 363.0733691304922 1432.5405175462365L409.9547094628215 1442.0605077818036Q426.3543676659465 1449.0200634524226 426.3543676659465 1463.1795702949166Q426.3543676659465 1484.3984375 403.795349098742 1484.3984375ZM285.8150097504258 1123.139956049621 657.9169262424111 765.2971435561776Q694.9170605093241 729.2769580185413 686.427202116698 698.6570410355926Q677.937343724072 668.0371240526438 632.9373437389731 657.7373437806964L595.296862795949 649.4175122380257Q586.5570410192013 645.5377099886537 582.9370996132493 640.5479309335351Q579.3171582072973 635.5581518784165 579.3171582072973 628.8384057804942Q579.3171582072973 618.0789599716663 586.2368371672928 612.4392602592707Q593.1565161272883 606.799560546875 605.3159863501787 606.799560546875H942.9931518211961Q955.4127148166299 606.799560546875 961.8524206317961 612.2592749074101Q968.2921264469624 617.7189892679453 968.2921264469624 628.2984497249126Q968.2921264469624 637.9579809829593 961.182399880141 645.3975708335638Q954.0726733133197 652.8371606841683 932.8734301403165 656.2370630279183Q871.8338647261262 668.1568945646286 818.373924549669 696.8068274185061Q764.9139843732119 725.4567602723837 710.9541967883706 777.756674811244L303.85408691316843 1165.7780078276992ZM591.2315576225519 857.3212109357119 905.3711718395352 1379.700305134058Q921.7714770138264 1406.440822713077 937.6918395645916 1418.0909020602703Q953.6122021153569 1429.7409814074636 977.1128490939736 1437.6208202764392Q991.3924682363868 1445.46037350595 995.8023351803422 1451.2800951898098Q1000.2122021242976 1457.0998168736696 1000.2122021242976 1464.9194775223732Q1000.2122021242976 1473.8389794826508 994.0525182820857 1479.1187084913254Q987.8928344398737 1484.3984375 976.3133373633027 1484.3984375H571.1180126965046Q561.318439938128 1484.3984375 555.0787280201912 1478.7787463329732Q548.8390161022544 1473.1590551659465 548.8390161022544 1463.1795702949166Q548.8390161022544 1456.4998412877321 552.6489868052304 1451.50001828745Q556.4589575082064 1446.500195287168 564.7188061401248 1443.3204052448273L603.7595312297344 1435.3005614951253Q627.359775364399 1429.4007568061352 631.3199413791299 1415.3406640291214Q635.2801073938608 1401.2805712521076 618.5800219476223 1374.120515100658L415.6172680705786 1022.1963744983077Z"/>
  <path fill="#1A1614" d="M1314.373466797173 616.8587622195482V1385.4017821848392Q1314.373466797173 1406.0411767214537 1320.6734912097454 1416.2809801883996Q1326.9735156223178 1426.5207836553454 1341.3735644444823 1430.7406640276313L1387.8949340730906 1439.9006835594773Q1397.5147167891264 1443.4404443055391 1401.8945739679039 1449.1101904027164Q1406.2744311466813 1454.7799364998937 1406.2744311466813 1463.1795702949166Q1406.2744311466813 1473.0590185448527 1399.9747363179922 1478.7287280224264Q1393.675041489303 1484.3984375 1382.0955444127321 1484.3984375H1003.1190258935094Q992.3395776450634 1484.3984375 985.9198803752661 1478.7287280224264Q979.5001831054688 1473.0590185448527 979.5001831054688 1463.1795702949166Q979.5001831054688 1455.3399804458022 983.790047608316 1449.810245335102Q988.0799121111631 1444.280510224402 997.319636233151 1440.4607275053859L1045.5211376994848 1430.7406640276313Q1060.3411767557263 1426.5207836553454 1066.4312060512602 1416.2809801883996Q1072.5212353467941 1406.0411767214537 1072.5212353467941 1385.9618261307478V746.8148511201143Q1072.5212353467941 732.8353784605861 1068.051330562681 726.435573771596Q1063.5814257785678 720.0357690826058 1052.821601562202 718.0559302121401L995.4996215850115 716.976018100977Q986.0399804711342 714.0962524712086 981.9901025407016 709.026463650167Q977.9402246102691 703.9566748291254 977.9402246102691 696.5370385944843Q977.9402246102691 687.8374170064926 983.3999939002097 682.217707529664Q988.8597631901503 676.5979980528355 1001.0391992330551 672.1782397478819L1245.276359833777 599.8193432688713Q1263.4156567156315 593.4996215850115 1272.345257550478 591.4897363297641Q1281.2748583853245 589.4798510745168 1289.5344750881195 589.4798510745168Q1301.773967280984 589.4798510745168 1308.0737170390785 597.1395532265306Q1314.373466797173 604.7992553785443 1314.373466797173 616.8587622195482ZM1186.9972412139177 461.3556616231799Q1121.0590551793575 461.3556616231799 1080.5501159727573 419.79658203572035Q1040.0411767661572 378.2375024482608 1040.0411767661572 315.67904541641474Q1040.0411767661572 252.7205639705062 1080.8301379457116 211.16148438304663Q1121.619099125266 169.60240479558706 1186.9972412139177 169.60240479558706Q1253.355417482555 169.60240479558706 1294.6343530267477 211.24149414896965Q1335.9132885709405 252.88058350235224 1335.9132885709405 315.5590429753065Q1335.9132885709405 378.2375024482608 1294.4943420402706 419.79658203572035Q1253.0753955096006 461.3556616231799 1186.9972412139177 461.3556616231799Z"/>
  <path fill="#1A1614" d="M1475.3415795862675 669.0171338245273 1402.7600805684924 654.0571509152651Q1391.6004272475839 650.1773486658931 1388.0605139173567 643.9876367487013Q1384.5206005871296 637.7979248315096 1384.5206005871296 629.3383081257343Q1384.5206005871296 619.6588476672769 1391.4502258375287 613.2292041070759Q1398.3798510879278 606.799560546875 1408.7992553934455 606.799560546875H1482.9406152442098Q1492.2406518682837 606.799560546875 1499.0305224768817 602.1596655249596Q1505.8203930854797 597.5197705030441 1514.0199536383152 584.7001464739442L1664.9369653016329 418.8796923905611Q1674.8564672619104 406.4602514654398 1685.3459472469985 399.71055663749576Q1695.8354272320867 392.9608618095517 1706.3949584886432 392.9608618095517Q1717.9344018548727 392.9608618095517 1724.9640759304166 400.47050902992487Q1731.9937500059605 407.980156250298 1731.9937500059605 423.3594213947654V1237.7032836675644Q1731.9937500059605 1311.8631689175963 1760.253854982555 1348.363138396293Q1788.5139599591494 1384.8631078749895 1838.734035640955 1384.8631078749895Q1860.5140331983566 1384.8631078749895 1878.264045406133 1377.703210413456Q1896.0140576139092 1370.5433129519224 1910.484072264284 1357.573426477611Q1924.9540869146585 1344.6035400032997 1936.6140515170991 1327.223609585315Q1948.2740161195397 1309.8436791673303 1957.453928232193 1289.403613254428Q1963.0537085086107 1285.2036254629493 1968.3835656866431 1288.933433815837Q1973.7134228646755 1292.6632421687245 1972.313398450613 1305.582744129002Q1961.2531713992357 1367.1415673717856 1931.4936340413988 1411.27056395635Q1901.7340966835618 1455.3995605409145 1853.7251208499074 1479.0589331015944Q1805.716145016253 1502.7183056622744 1739.5176220685244 1502.7183056622744Q1622.139711908996 1502.7183056622744 1559.0805468708277 1445.21923949942Q1496.0213818326592 1387.7201733365655 1496.0213818326592 1267.1822802647948V703.176323287189Q1496.0213818326592 688.2166577577591 1492.3713879361749 680.2568091228604Q1488.7213940396905 672.2969604879618 1475.3415795862675 669.0171338245273ZM1650.5358667075634 660.7369165420532 1655.5757495164871 606.799560546875H1950.3142163082957Q1962.9937500059605 606.799560546875 1969.2334619238973 611.6893273964524Q1975.473173841834 616.5790942460299 1975.473173841834 626.7186352685094Q1975.473173841834 641.1779345944524 1962.1137524470687 650.9574255682528Q1948.7543310523033 660.7369165420532 1920.655661597848 660.7369165420532Z"/>
  <path fill="#1A1614" d="M2308.433242186904 27.378911145031452V1385.4017821848392Q2308.433242186904 1406.7611181288958 2314.4632885716856 1417.450884975493Q2320.493334956467 1428.1406518220901 2335.073369130492 1432.5405175462365L2381.9547094628215 1442.0605077818036Q2398.3543676659465 1449.0200634524226 2398.3543676659465 1463.1795702949166Q2398.3543676659465 1484.3984375 2375.795349098742 1484.3984375H1997.1788012832403Q1986.5793383866549 1484.3984375 1980.0696484409273 1478.7287280224264Q1973.5599584951997 1473.0590185448527 1973.5599584951997 1463.1795702949166Q1973.5599584951997 1455.059958472848 1978.4098669439554 1449.2001830786467Q1983.2597753927112 1443.3404076844454 1993.619587406516 1439.3406396135688L2039.5809130892158 1430.7406640276313Q2054.4009521454573 1426.700769007206 2060.490981440991 1416.46096554026Q2066.581010736525 1406.2211620733142 2066.581010736525 1385.9618261307478V157.33500004559755Q2066.581010736525 143.3555273860693 2062.111105952412 136.95572269707918Q2057.6412011682987 130.55591800808907 2046.881376951933 128.5760791376233L1989.5593969747424 127.49616702646017Q1980.0997558608651 124.6164013966918 1976.0498779304326 119.54661257565022Q1972.0 114.47682375460863 1972.0 107.05718751996756Q1972.0 98.35756593197584 1977.4597692899406 92.73785645514727Q1982.9195385798812 87.11814697831869 1995.098974622786 82.69838867336512L2239.336135223508 10.339492194354534Q2257.4754321053624 4.019770510494709 2266.405032940209 2.0098852552473545Q2275.3346337750554 0.0 2283.5942504778504 0.0Q2295.833742670715 0.0 2302.1334924288094 7.659702152013779Q2308.433242186904 15.319404304027557 2308.433242186904 27.378911145031452ZM2286.7938720732927 821.9164502173662 2264.434816889465 796.3176220804453 2301.694616690278 761.5978515744209Q2401.013984374702 668.8185864239931 2475.7133190892637 627.809073485434Q2550.4126538038254 586.799560546875 2617.8322900384665 586.799560546875Q2713.732143558562 586.799560546875 2765.0522192418575 646.3197644092143Q2816.3722949251533 705.8399682715535 2831.7325097694993 826.5604101717472L2901.0733081027865 1381.4814745634794Q2903.8532690405846 1404.0810229107738 2910.1134045384824 1415.8609472289681Q2916.3735400363803 1427.6408715471625 2932.553757317364 1431.8607519194484L2974.594775378704 1440.4607275053859Q2983.6545141488314 1444.3604589551687 2988.124364003539 1449.7102087140083Q2992.594213858247 1455.059958472848 2992.594213858247 1463.1795702949166Q2992.594213858247 1473.0590185448527 2986.2945190295577 1478.7287280224264Q2979.9948242008686 1484.3984375 2968.4153271242976 1484.3984375H2584.3588232547045Q2561.2397607415915 1484.3984375 2561.2397607415915 1463.1795702949166Q2561.2397607415915 1449.2201366946101 2578.3794482424855 1442.0605077818036L2626.380876466632 1432.5405175462365Q2643.621076658368 1428.1406518220901 2650.8311083950102 1416.2707348279655Q2658.0411401316524 1404.4008178338408 2655.2611791938543 1383.2813280820847L2594.2000732421875 871.8980102986097Q2583.6197338849306 791.6162549182773 2555.7590490691364 753.6554480306804Q2527.898364253342 715.6946411430836 2471.87725096941 715.6946411430836Q2436.0164868086576 715.6946411430836 2399.6456848084927 733.945056181401Q2363.2748828083277 752.1954712197185 2320.8138256818056 791.1564673110843Z"/>
  <path fill="#1A1614" d="M3435.5978515595198 586.9195629879832Q3568.4170971661806 586.9195629879832 3670.226640623063 645.7194897457957Q3772.036184079945 704.5194165036082 3829.9559912085533 808.5492858886719Q3887.8757983371615 912.5791552737355 3887.8757983371615 1048.5389794930816Q3887.8757983371615 1181.0790087878704 3828.4560522437096 1283.8488830551505Q3769.0363061502576 1386.6187573224306 3664.7068151831627 1445.2386193834245Q3560.377324216068 1503.8584814444184 3424.558078609407 1503.8584814444184Q3291.9188183546066 1503.8584814444184 3190.2993041947484 1445.8985778801143Q3088.67979003489 1387.9386743158102 3031.3200268521905 1285.1088171377778Q2973.960263669491 1182.2789599597454 2973.960263669491 1047.2791186496615Q2973.960263669491 914.1590795889497 3032.81992309168 810.4191967770457Q3091.679582513869 706.6793139651418 3195.799035638571 646.7994384765625Q3299.9184887632728 586.9195629879832 3435.5978515595198 586.9195629879832ZM3490.7573583871126 1452.1410424411297Q3550.0790576040745 1444.6609960570931 3587.810446765274 1392.5205212123692Q3625.541835926473 1340.3800463676453 3637.642751455307 1246.3195019438863Q3649.743666984141 1152.2589575201273 3631.2240063399076 1019.4986938536167Q3612.5243237242103 883.7983398586512 3575.283732905984 796.6479004137218Q3538.0431420877576 709.4974609687924 3486.241817627102 670.2671643421054Q3434.4404931664467 631.0368677154183 3371.778630375862 639.0569067746401Q3310.9167675822973 646.8369409516454 3273.325389407575 699.677470728755Q3235.734011232853 752.5180005058646 3224.983144532889 846.3585669025779Q3214.2322778329253 940.1991332992911 3232.151962891221 1071.8393090739846Q3251.031630858779 1205.1195019334555 3288.592279050499 1292.4999450407922Q3326.1529272422194 1379.880388148129 3378.094262689352 1419.7507384866476Q3430.0355981364846 1459.6210888251662 3490.7573583871126 1452.1410424411297Z"/>
  <path fill="#1A1614" d="M4286.538430169225 1458.1605199947953Q4352.679460443556 1458.1605199947953 4390.23022948578 1424.4298083260655Q4427.780998528004 1390.6990966573358 4427.780998528004 1337.3578832820058Q4427.780998528004 1300.3771288916469 4410.920667719096 1270.8665844611824Q4394.060336910188 1241.3560400307178 4352.619678955525 1216.155649408698Q4311.179021000862 1190.9552587866783 4237.877995617688 1168.1349267587066Q4115.4192334041 1129.6752490252256 4045.7398095726967 1084.405563969165Q3976.0603857412934 1039.1358789131045 3947.230546873063 981.8062902912498Q3918.4007080048323 924.476701669395 3918.4007080048323 850.157309576869Q3918.4007080048323 726.498278811574 4003.040090329945 655.8088537603617Q4087.679472655058 585.1194287091494 4237.677861332893 585.1194287091494Q4297.597827151418 585.1194287091494 4336.537783205509 596.579454343766Q4375.477739259601 608.0394799783826 4397.757620852441 619.4995056129992Q4420.037502445281 630.9595312476158 4429.777250982821 630.9595312476158Q4440.757004402578 630.9595312476158 4461.006723638624 619.4995056129992Q4481.25644287467 608.0394799783826 4501.706131592393 596.579454343766Q4522.155820310116 585.1194287091494 4533.2754565402865 585.1194287091494Q4541.815095216036 585.1194287091494 4548.924797367305 590.1791735850275Q4556.034499518573 595.2389184609056 4559.914338387549 611.8182568475604L4608.915339358151 850.059787556529Q4614.335134282708 869.3588720411062 4611.975261233747 882.0782458297908Q4609.615388184786 894.7976196184754 4599.715888664126 899.3774340748787Q4589.216413557529 903.4372216761112 4579.0669079348445 899.1374108828604Q4568.9174023121595 894.8376000896096 4560.737807579339 882.8381127789617Q4510.278361789882 787.9579565450549 4461.508426494896 732.7477600201964Q4412.738491199911 677.537563495338 4360.9581823684275 653.7774157933891Q4309.177873536944 630.0172680914402 4249.197290048003 630.0172680914402Q4175.515998549759 630.0172680914402 4136.835134290159 665.6879358142614Q4098.154270030558 701.3586035370827 4098.154270030558 758.2598242387176Q4098.154270030558 796.5803759917617 4116.414460457861 828.1008178815246Q4134.674650885165 859.6212597712874 4181.485079348087 886.0316027849913Q4228.29550781101 912.4419457986951 4313.916206046939 936.2222241163254Q4418.8957763537765 965.3822314366698 4484.1553930565715 1008.0620458871126Q4549.4150097593665 1050.7418603375554 4579.644763182849 1107.7715099975467Q4609.874516606331 1164.801159657538 4609.874516606331 1237.3006347641349Q4609.874516606331 1318.6598364263773 4570.014991458505 1378.5793200694025Q4530.15546631068 1438.4988037124276 4460.866206053644 1471.708554688841Q4391.576945796609 1504.9183056652546 4302.77773924917 1504.9183056652546Q4244.737966299057 1504.9183056652546 4205.4079504311085 1490.218153078109Q4166.07793456316 1475.5180004909635 4143.367878410965 1460.7878564484417Q4120.6578222587705 1446.05771240592 4112.997937001288 1446.05771240592Q4104.698193348944 1446.05771240592 4087.2985839769244 1459.877849124372Q4069.8989746049047 1473.697985842824 4051.139376219362 1487.4881311058998Q4032.3797778338194 1501.2782763689756 4020.8200634792447 1501.2782763689756Q4011.7804858386517 1501.2782763689756 4004.660703122616 1494.4585607908666Q3997.54092040658 1487.6388452127576 3994.3410058543086 1470.859519034624L3954.580205075443 1257.2382470965385Q3950.8203320279717 1233.779155291617 3952.8601904287934 1222.2696423456073Q3954.900048829615 1210.7601293995976 3966.17948487401 1206.9402734413743Q3975.7190136909485 1203.320368655026 3984.9585302993655 1208.5501342825592Q3994.1980469077826 1213.7798999100924 4002.957529336214 1227.5392602682114Q4072.257126495242 1353.2800219729543 4142.387673359364 1405.7202709838748Q4212.518220223486 1458.1605199947953 4286.538430169225 1458.1605199947953Z"/></svg>