<svg xmlns="http://www.w3.org/2000/svg" viewBox="0 0 1024 1024">
<rect width="1024" height="1024" rx="230.4" ry="230.4" fill="#1F3A2F"/>
<g transform="translate(194.56 194.56) scale(5.290666666666667)"><path d="M 54.840 17.320 A 2.160 2.160 0 0 1 57.000 19.480 L 57.000 53.000 A 4.000 4.000 0 0 1 53.000 57.000 L 19.480 57.000 A 2.160 2.160 0 0 1 17.320 54.840 L 17.320 54.840 A 2.160 2.160 0 0 1 18.847 51.153 L 51.153 18.847 A 2.160 2.160 0 0 1 54.840 17.320 Z" fill="#F5EFE2"/><path d="M 63.000 21.320 A 4.000 4.000 0 0 1 67.000 17.320 L 98.680 17.320 A 4.000 4.000 0 0 1 102.680 21.320 L 102.680 53.000 A 4.000 4.000 0 0 1 98.680 57.000 L 67.000 57.000 A 4.000 4.000 0 0 1 63.000 53.000 Z" fill="#F5EFE2"/><path d="M 63.000 67.000 A 4.000 4.000 0 0 1 67.000 63.000 L 100.520 63.000 A 2.160 2.160 0 0 1 102.680 65.160 L 102.680 65.160 A 2.160 2.160 0 0 1 101.153 68.847 L 68.847 101.153 A 2.160 2.160 0 0 1 65.160 102.680 L 65.160 102.680 A 2.160 2.160 0 0 1 63.000 100.520 Z" fill="#F5EFE2"/><path d="M 17.320 67.000 A 4.000 4.000 0 0 1 21.320 63.000 L 53.000 63.000 A 4.000 4.000 0 0 1 57.000 67.000 L 57.000 98.680 A 4.000 4.000 0 0 1 53.000 102.680 L 21.320 102.680 A 4.000 4.000 0 0 1 17.320 98.680 Z" fill="#F5EFE2"/></g>
</svg>